<svg
  xmlns="http://www.w3.org/2000/svg"
  viewBox="0 0 24 24"
  fill="#ffffff"
  width="24px"
  height="24px"
>
  <path d="M12 2C6.477 2 2 6.477 2 12s4.477 10 10 10 10-4.477 10-10S17.523 2 12 2zm0 18c-4.418 0-8-3.582-8-8s3.582-8 8-8 8 3.582 8 8-3.582 8-8 8zm.276-10.624h-1.684v2.824h-2.72v-7.176h5.404v1.344zm2.423 5.29c.63-.7.968-1.57.968-2.52 0-2.257-1.827-4.085-4.084-4.085-2.256 0-4.084 1.828-4.084 4.085 0 .95.34 1.82.967 2.52l-.002.002.002.002v.8h1.68v-.8h.003v-.003v-.001v-.002c.113-.127.22-.262.318-.403.317-.465.576-.99.762-1.547h-.656v-.784h2.616v.784h-.65c.186.557.445 1.082.762 1.547.098.14.205.276.318.403v.003v.001v.002l.003.002-.002.002zm-.738-1.92c-.77 0-1.395-.625-1.395-1.395 0-.77.625-1.396 1.395-1.396.77 0 1.396.626 1.396 1.396 0 .77-.626 1.395-1.396 1.395z"/>
</svg>
